<?xml version="1.0" encoding="UTF-8"?>
<!DOCTYPE svg PUBLIC "-//W3C//DTD SVG 1.1//EN" "http://www.w3.org/Graphics/SVG/1.1/DTD/svg11.dtd">
<!-- Creator: CorelDRAW X7 -->
<svg xmlns="http://www.w3.org/2000/svg" xml:space="preserve" version="1.1" viewBox="0 0 2456 717" xmlns:xlink="http://www.w3.org/1999/xlink"> <path class="fil0" d="M309 153l-84 238 169 0 -85 -238zm-128 362c-6,15 -11,30 -17,46 -6,16 -11,32 -17,48 -5,16 -11,32 -17,48 -5,16 -11,31 -16,45l-69 0c-10,0 -18,-2 -25,-5 -6,-4 -11,-8 -15,-14 -3,-6 -5,-13 -5,-20 0,-8 1,-15 4,-23l201 -568c4,-9 9,-18 16,-25 7,-8 15,-14 25,-19 9,-5 19,-9 30,-11 11,-2 22,-4 33,-4 11,0 22,2 33,4 10,3 21,6 30,11 9,5 18,11 25,19 7,7 13,16 17,25l223 630 -86 0c-15,0 -28,-4 -39,-12 -10,-8 -19,-19 -24,-34l-50 -141 -257 0zm576 187c-45,0 -67,-21 -67,-65l0 -556c0,-43 22,-65 67,-65l270 0c56,0 104,23 144,69 37,43 55,94 55,153 0,22 -2,43 -8,64 -5,20 -13,40 -24,57 -10,18 -22,34 -37,48 -15,15 -32,26 -51,36 7,7 13,15 19,25 5,9 11,19 16,31l88 203 -83 0c-17,0 -31,-3 -43,-10 -12,-7 -21,-17 -26,-29l-78 -177c-8,-17 -22,-25 -45,-25l-139 0 0 241 -58 0zm58 -366l212 0c10,0 19,-3 28,-8 9,-5 17,-12 24,-21 7,-9 12,-19 16,-31 4,-12 6,-24 6,-38 0,-13 -2,-25 -6,-37 -4,-12 -9,-22 -16,-31 -7,-9 -15,-16 -24,-21 -9,-5 -18,-8 -28,-8l-212 0 0 195zm641 182c0,18 5,32 15,43 10,10 23,16 39,16l215 0c45,0 68,22 68,65l0 60 -284 0c-25,0 -49,-4 -71,-13 -22,-8 -40,-21 -56,-37 -16,-16 -29,-35 -38,-58 -9,-23 -13,-48 -13,-76l0 -317c0,-28 4,-53 13,-76 9,-23 21,-43 37,-59 17,-16 35,-28 57,-37 22,-8 45,-13 71,-13l284 0 0 60c0,44 -23,65 -68,65l-215 0c-16,0 -29,6 -39,17 -10,10 -15,25 -15,43l0 95 337 0 0 60c0,44 -23,65 -68,65l-269 0 0 97zm723 74c9,0 20,0 31,-1 11,-1 22,-3 34,-6 11,-2 22,-6 32,-10 11,-5 20,-10 28,-17 9,-7 15,-15 20,-25 5,-10 7,-21 7,-34 0,-27 -13,-48 -40,-63 -10,-5 -21,-9 -32,-11 -11,-2 -22,-4 -34,-4 -11,0 -23,0 -34,0 -12,0 -24,1 -36,1 -24,0 -46,-2 -67,-4 -21,-3 -39,-7 -54,-12 -21,-7 -40,-16 -57,-28 -17,-12 -31,-26 -43,-43 -12,-16 -21,-34 -27,-53 -7,-20 -10,-41 -10,-63 0,-18 2,-35 7,-52 4,-17 11,-34 21,-49 45,-79 129,-118 252,-118 16,0 33,1 51,5 18,3 37,8 55,15 18,6 36,15 54,25 17,10 33,23 49,37 15,14 28,30 39,48 12,18 21,38 28,60l-48 22c-8,4 -16,6 -24,7 -9,1 -17,0 -25,-2 -8,-2 -16,-5 -23,-10 -7,-5 -13,-11 -18,-19 -7,-12 -17,-22 -28,-30 -11,-8 -23,-15 -36,-19 -13,-5 -26,-9 -40,-11 -13,-3 -27,-4 -39,-4 -20,0 -39,2 -58,6 -18,4 -34,10 -47,18 -14,8 -25,18 -33,30 -8,12 -12,26 -12,43 0,26 13,45 38,58 25,12 62,18 109,18 14,0 29,0 43,0 15,-1 29,0 45,2 29,3 56,11 80,22 25,11 46,25 63,43 18,17 32,37 42,60 9,24 14,48 14,75 0,25 -5,49 -14,73 -10,24 -23,45 -39,63 -52,54 -128,82 -226,82 -34,0 -66,-5 -97,-13 -30,-8 -58,-20 -82,-36 -25,-16 -46,-35 -64,-59 -18,-23 -31,-51 -40,-82l48 -21c8,-4 16,-6 24,-7 9,0 17,0 25,2 8,2 15,5 23,10 7,4 13,10 18,18 5,8 12,17 22,24 9,8 20,15 32,21 13,5 26,10 42,13 15,4 32,5 51,5z"/></svg>
