<?xml version="1.0" encoding="UTF-8"?>
<!DOCTYPE svg PUBLIC "-//W3C//DTD SVG 1.1//EN" "http://www.w3.org/Graphics/SVG/1.1/DTD/svg11.dtd">
<!-- Creator: CorelDRAW X7 -->
<svg xmlns="http://www.w3.org/2000/svg" xml:space="preserve" width="4.03661in" height="1.43331in" version="1.1" style="shape-rendering:geometricPrecision; text-rendering:geometricPrecision; image-rendering:optimizeQuality; fill-rule:evenodd; clip-rule:evenodd"
viewBox="0 0 4037 1433"
 xmlns:xlink="http://www.w3.org/1999/xlink">
 <defs>
  <style type="text/css">
   <![CDATA[
    .fil2 {fill:#425E09}
    .fil0 {fill:#373435;fill-rule:nonzero}
    .fil1 {fill:url(#id0)}
   ]]>
  </style>
  <linearGradient id="id0" gradientUnits="userSpaceOnUse" x1="1132.37" y1="994.417" x2="367.209" y2="438.89">
   <stop offset="0" style="stop-opacity:1; stop-color:#5E850F"/>
   <stop offset="0.6" style="stop-opacity:1; stop-color:#91B645"/>
   <stop offset="1" style="stop-opacity:1; stop-color:#C4E87B"/>
  </linearGradient>
 </defs>
 <g id="Layer_x0020_1">
  <metadata id="CorelCorpID_0Corel-Layer"/>
  <g id="_779647328">
   <path class="fil0" d="M1890 869l-85 239 170 0 -85 -239zm-129 363c-5,15 -11,30 -16,46 -6,16 -12,32 -17,48 -6,16 -12,32 -17,48 -6,15 -11,30 -16,45l-70 0c-10,0 -18,-2 -24,-5 -7,-4 -12,-9 -15,-15 -3,-6 -5,-12 -6,-19 0,-8 1,-16 4,-24l202 -567c3,-9 8,-18 16,-26 7,-7 15,-13 24,-18 9,-5 19,-9 30,-11 11,-3 22,-4 33,-4 11,0 22,1 33,4 11,3 21,6 30,11 10,5 18,11 25,18 8,8 13,17 17,26l223 630 -85 0c-16,0 -29,-4 -39,-12 -11,-8 -19,-19 -25,-34l-50 -141 -257 0zm577 187c-45,0 -68,-22 -68,-65l0 -556c0,-43 23,-65 68,-65l269 0c56,0 104,23 144,69 37,43 56,94 56,153 0,22 -3,43 -8,64 -6,20 -14,39 -24,57 -10,18 -23,34 -38,48 -15,14 -32,26 -50,36 6,7 12,15 18,24 6,9 11,20 16,31l89 204 -84 0c-16,0 -30,-4 -43,-10 -12,-7 -21,-17 -26,-29l-78 -178c-7,-16 -22,-24 -44,-24l-140 0 0 241 -57 0zm57 -367l212 0c10,0 20,-2 29,-7 9,-5 17,-12 23,-21 7,-9 12,-19 17,-31 3,-12 5,-25 5,-38 0,-13 -2,-26 -5,-38 -5,-11 -10,-22 -17,-30 -6,-9 -14,-16 -23,-21 -9,-5 -19,-8 -29,-8l-212 0 0 194zm641 182c0,18 5,33 15,43 10,11 23,16 39,16l215 0c45,0 68,22 68,66l0 60 -283 0c-26,0 -50,-5 -71,-13 -22,-9 -41,-21 -57,-37 -16,-16 -28,-36 -37,-58 -10,-23 -14,-48 -14,-77l0 -317c0,-27 4,-53 13,-76 9,-23 22,-42 38,-58 16,-16 35,-28 56,-37 22,-9 46,-13 72,-13l283 0 0 60c0,43 -23,65 -68,65l-215 0c-16,0 -29,5 -39,16 -10,11 -15,26 -15,43l0 96 337 0 0 60c0,43 -23,65 -68,65l-269 0 0 96zm723 75c10,0 20,-1 31,-2 11,-1 23,-2 34,-5 11,-2 22,-6 33,-10 10,-5 19,-11 28,-18 8,-6 15,-15 19,-24 5,-10 8,-21 8,-34 0,-27 -14,-48 -40,-63 -11,-5 -21,-9 -33,-11 -11,-2 -22,-4 -33,-4 -12,-1 -23,-1 -35,0 -12,0 -24,0 -36,0 -24,0 -46,-1 -67,-4 -20,-2 -38,-6 -54,-11 -21,-7 -40,-17 -57,-29 -16,-12 -31,-26 -43,-42 -11,-16 -21,-34 -27,-54 -6,-19 -9,-40 -9,-62 0,-18 2,-36 6,-53 4,-17 11,-33 21,-49 45,-78 129,-117 252,-117 16,0 34,1 52,4 18,4 36,9 54,15 19,7 37,15 54,26 18,10 34,22 49,36 15,14 28,30 40,48 11,18 21,38 28,60l-49 23c-7,3 -15,6 -24,6 -8,1 -16,1 -25,-1 -8,-2 -15,-5 -22,-10 -7,-5 -13,-11 -18,-19 -8,-12 -18,-22 -29,-30 -11,-8 -23,-15 -35,-20 -13,-5 -27,-8 -40,-11 -14,-2 -27,-3 -40,-3 -20,0 -39,2 -57,6 -18,4 -34,10 -48,18 -14,8 -24,18 -33,30 -8,12 -12,26 -12,43 0,26 13,45 38,57 26,12 62,18 109,18 15,0 29,0 44,0 14,0 29,1 44,2 29,4 56,11 81,23 24,11 45,25 63,43 17,17 31,37 41,60 10,23 15,48 15,75 0,24 -5,49 -15,72 -9,24 -22,45 -38,64 -53,54 -128,81 -227,81 -34,0 -66,-4 -96,-12 -31,-8 -58,-20 -83,-36 -24,-16 -45,-36 -64,-59 -17,-24 -31,-51 -40,-82l49 -22c7,-3 15,-5 23,-6 9,-1 17,0 25,2 8,2 16,5 23,9 7,5 13,11 18,18 5,9 13,17 22,25 9,8 20,15 33,20 12,6 26,11 41,14 16,3 33,5 51,5z"/>
   <g>
    <path class="fil1" d="M736 493l-125 352 251 0 -126 -352zm196 -421l492 470c101,96 101,253 0,349l-261 250 -272 -767c-6,-14 -14,-27 -25,-38 -10,-11 -23,-20 -37,-28 -14,-7 -29,-12 -45,-16 -15,-4 -32,-6 -48,-6 -17,0 -33,2 -49,6 -16,3 -31,9 -45,16 -13,7 -25,17 -36,28 -11,11 -19,24 -24,38l-265 748 -242 -231c-100,-96 -100,-253 0,-349l492 -470c101,-96 265,-96 365,0zm90 1203l-89 86c-101,96 -265,96 -366,0l-104 -99 9 -23c8,-23 16,-46 24,-70 9,-24 17,-48 26,-71 8,-24 16,-47 24,-69l381 0 74 209c5,15 13,27 21,37z"/>
    <path class="fil2" d="M880 354l571 507c-8,11 -17,21 -27,30l-261 250 -272 -767c-3,-7 -6,-14 -11,-20zm-144 139l-125 352 246 0 -121 -352zm286 782l-89 86c-101,96 -265,96 -366,0l-104 -99 0 0 1 0 8 -23c4,-12 8,-24 12,-36l1 -1 42 -118c5,-15 10,-29 15,-43l0 -1 4 -11 381 0 74 209c5,15 13,27 21,37z"/>
   </g>
  </g>
 </g>
</svg>
